<svg width="25" height="23" viewBox="0 0 25 23" fill="none" xmlns="http://www.w3.org/2000/svg">
<path d="M23.9583 10.3502H3.1776L11.1349 1.98286C11.5516 1.54471 11.5677 0.81677 11.1708 0.356776C10.7745 -0.102643 10.1151 -0.121043 9.69792 0.317101L0.610417 9.87348C0.217187 10.3082 0 10.8855 0 11.5001C0 12.1142 0.217187 12.6921 0.628646 13.1458L9.69844 22.6826C9.9 22.8948 10.1583 23 10.4167 23C10.6917 23 10.9667 22.8804 11.1714 22.6429C11.5682 22.1829 11.5521 21.4556 11.1354 21.0174L3.14479 12.6501H23.9583C24.5333 12.6501 25 12.1349 25 11.5001C25 10.8653 24.5333 10.3502 23.9583 10.3502Z" fill="white"/>
</svg>
