<svg width="19" height="23" viewBox="0 0 19 23" xmlns="http://www.w3.org/2000/svg">
<path d="M18.2239 18.3036C18.1563 18.2597 17.6475 17.9032 17.138 16.8249C16.2023 14.8446 16.0059 12.0551 16.0059 10.0636C16.0059 10.055 16.0057 10.0464 16.0054 10.0377C15.9952 7.40582 14.4192 5.137 12.1639 4.11902V2.56216C12.1639 1.14937 11.0165 0 9.606 0H9.39402C7.98356 0 6.83607 1.14937 6.83607 2.56216V4.11893C4.57327 5.14019 2.99413 7.4206 2.99413 10.0636C2.99413 12.0551 2.79773 14.8446 1.86205 16.8249C1.35259 17.9032 0.843763 18.2596 0.776111 18.3036C0.491216 18.4354 0.350745 18.74 0.416286 19.0486C0.482456 19.3603 0.77382 19.5752 1.092 19.5752H6.03103C6.05861 21.4683 7.60365 23 9.50003 23C11.3964 23 12.9415 21.4683 12.969 19.5752H17.9081C18.2262 19.5752 18.5176 19.3603 18.5838 19.0486C18.6492 18.74 18.5088 18.4354 18.2239 18.3036V18.3036ZM8.18378 2.56216C8.18378 1.89368 8.7267 1.34986 9.39406 1.34986H9.60605C10.2734 1.34986 10.8163 1.89368 10.8163 2.56216V3.68148C10.391 3.59357 9.95073 3.5473 9.49985 3.5473C9.04911 3.5473 8.60896 3.59353 8.18382 3.68135V2.56216H8.18378ZM9.50003 21.6501C8.34675 21.6501 7.40604 20.724 7.37869 19.5753H11.6213C11.594 20.7239 10.6533 21.6501 9.50003 21.6501V21.6501ZM12.2133 18.2253C12.2132 18.2253 2.62766 18.2253 2.62766 18.2253C2.74423 18.0437 2.86287 17.838 2.98079 17.6055C3.8839 15.8247 4.34183 13.2872 4.34183 10.0636C4.34183 7.21481 6.65571 4.89716 9.49981 4.89716C12.3439 4.89716 14.6578 7.21481 14.6578 10.0659C14.6578 10.0742 14.6579 10.0824 14.6582 10.0907C14.6608 13.3014 15.1187 15.8297 16.0193 17.6055C16.1372 17.838 16.2559 18.0437 16.3724 18.2253H12.2133Z" fill="black"/>
</svg>
