<svg width="20" height="20" viewBox="0 0 20 20" xmlns="http://www.w3.org/2000/svg">
<path d="M19.2188 9.21875H5.63525C5.20377 9.21875 4.854 9.56852 4.854 10C4.854 10.4315 5.20377 10.7812 5.63525 10.7812H19.2188C19.6503 10.7812 20 10.4315 20 10C20 9.56852 19.6503 9.21875 19.2188 9.21875Z" />
<path d="M19.2188 3.35938H5.63525C5.20377 3.35938 4.854 3.70914 4.854 4.14062C4.854 4.57211 5.20377 4.92188 5.63525 4.92188H19.2188C19.6503 4.92188 20 4.57211 20 4.14062C20 3.70914 19.6503 3.35938 19.2188 3.35938Z" />
<path d="M19.2188 15.0781H5.63525C5.20377 15.0781 4.854 15.4279 4.854 15.8594C4.854 16.2909 5.20377 16.6406 5.63525 16.6406H19.2188C19.6503 16.6406 20 16.2909 20 15.8594C20 15.4279 19.6503 15.0781 19.2188 15.0781Z" />
<path d="M1.05469 5.19531C1.63718 5.19531 2.10938 4.72311 2.10938 4.14062C2.10938 3.55814 1.63718 3.08594 1.05469 3.08594C0.4722 3.08594 0 3.55814 0 4.14062C0 4.72311 0.4722 5.19531 1.05469 5.19531Z" />
<path d="M1.05469 11.0547C1.63718 11.0547 2.10938 10.5825 2.10938 10C2.10938 9.41751 1.63718 8.94531 1.05469 8.94531C0.4722 8.94531 0 9.41751 0 10C0 10.5825 0.4722 11.0547 1.05469 11.0547Z" />
<path d="M1.05469 16.9141C1.63718 16.9141 2.10938 16.4419 2.10938 15.8594C2.10938 15.2769 1.63718 14.8047 1.05469 14.8047C0.4722 14.8047 0 15.2769 0 15.8594C0 16.4419 0.4722 16.9141 1.05469 16.9141Z" />
</svg>
