<svg width="10" height="10" viewBox="0 0 10 10" xmlns="http://www.w3.org/2000/svg">
<path d="M9.87781 9.28957L7.03409 6.44585C7.58493 5.76545 7.91658 4.90087 7.91658 3.95922C7.91658 1.77674 6.14076 0.000915527 3.95828 0.000915527C1.7758 0.000915527 0 1.77672 0 3.9592C0 6.14167 1.77582 7.9175 3.9583 7.9175C4.89995 7.9175 5.76453 7.58584 6.44494 7.03501L9.28866 9.87873C9.36991 9.95998 9.47657 10.0008 9.58325 10.0008C9.68992 10.0008 9.79658 9.95998 9.87783 9.87873C10.0407 9.71582 10.0407 9.45248 9.87781 9.28957ZM3.9583 7.08417C2.23498 7.08417 0.833332 5.68252 0.833332 3.9592C0.833332 2.23587 2.23498 0.834228 3.9583 0.834228C5.68162 0.834228 7.08327 2.23587 7.08327 3.9592C7.08327 5.68252 5.6816 7.08417 3.9583 7.08417Z"/>
</svg>
