<svg width="28" height="28" viewBox="0 0 28 28" fill="none" xmlns="http://www.w3.org/2000/svg">
<path d="M15.3067 28H12.6933C11.8102 28 11.0647 27.3385 10.9597 26.46L10.6808 24.2713C10.1243 24.0905 9.58767 23.8677 9.07783 23.6075L7.33483 24.962C6.62783 25.5092 5.63267 25.4462 5.019 24.815L3.1815 22.9775C2.555 22.3697 2.492 21.3745 3.03917 20.6687L4.39367 18.9245C4.13233 18.4147 3.9095 17.878 3.72983 17.3215L1.5365 17.0427C0.6615 16.9353 0 16.1898 0 15.3067V12.6933C0 11.8102 0.6615 11.0647 1.54 10.9597L3.72867 10.6808C3.9095 10.1243 4.13233 9.58767 4.3925 9.07783L3.03917 7.33483C2.49083 6.62783 2.555 5.6315 3.18733 5.01783L5.02483 3.18033C5.63267 2.55383 6.629 2.492 7.33367 3.038L9.07667 4.39367C9.5865 4.1335 10.1232 3.91067 10.6808 3.72983L10.9597 1.5365C11.0647 0.6615 11.8102 0 12.6933 0H15.3067C16.1898 0 16.9353 0.6615 17.0403 1.54L17.3192 3.72867C17.8768 3.9095 18.4135 4.13233 18.9233 4.3925L20.6663 3.038C21.3745 2.49083 22.3685 2.55383 22.9822 3.18617L24.8197 5.02367C25.4462 5.6315 25.5092 6.62667 24.962 7.3325L23.6075 9.07667C23.8688 9.5865 24.0917 10.1232 24.2713 10.6797L26.4647 10.9585C27.3385 11.0647 28 11.8102 28 12.6933V15.3067C28 16.1898 27.3385 16.9353 26.46 17.0403L24.2713 17.3192C24.0905 17.8757 23.8677 18.4123 23.6075 18.9222L24.962 20.6652C25.5103 21.3722 25.4462 22.3673 24.8138 22.981L22.9763 24.8185C22.3685 25.445 21.3722 25.5092 20.6675 24.9608L18.9233 23.6063C18.4135 23.8677 17.8768 24.0905 17.3203 24.2702L17.0415 26.4635C16.9353 27.3385 16.1898 28 15.3067 28ZM9.01833 22.33C9.11517 22.33 9.21433 22.3545 9.303 22.4035C9.94583 22.7628 10.6423 23.0522 11.3727 23.2622C11.5967 23.3263 11.7612 23.5177 11.7903 23.7487L12.117 26.3153C12.152 26.6082 12.4052 26.8333 12.6933 26.8333H15.3067C15.5948 26.8333 15.848 26.6082 15.8818 26.3212L16.2097 23.7498C16.2388 23.5188 16.4033 23.3275 16.6273 23.2633C17.3577 23.0533 18.0542 22.764 18.697 22.4047C18.9012 22.2903 19.1555 22.3102 19.3387 22.4537L21.3803 24.0403C21.6148 24.2223 21.9438 24.2072 22.1445 24.0007L23.9937 22.1515C24.2048 21.9462 24.2212 21.6172 24.0392 21.3815L22.4525 19.3398C22.309 19.1555 22.2892 18.9023 22.4035 18.6982C22.7628 18.0553 23.0522 17.3588 23.2622 16.6285C23.3263 16.4045 23.5177 16.24 23.7487 16.2108L26.3153 15.8842C26.6082 15.848 26.8333 15.5948 26.8333 15.3067V12.6933C26.8333 12.4052 26.6082 12.152 26.3212 12.1182L23.7498 11.7903C23.5188 11.7612 23.3275 11.5967 23.2633 11.3727C23.0533 10.6423 22.764 9.94583 22.4047 9.303C22.2903 9.09883 22.309 8.84567 22.4537 8.66133L24.0403 6.61967C24.2235 6.384 24.2072 6.055 24.0018 5.85667L22.1527 4.0075C21.9485 3.79517 21.6183 3.77883 21.3827 3.962L19.341 5.54867C19.1555 5.69217 18.9023 5.712 18.6982 5.59767C18.0577 5.23833 17.3612 4.95017 16.6285 4.739C16.4045 4.67483 16.24 4.4835 16.2108 4.2525L15.8842 1.68583C15.848 1.39183 15.5948 1.16667 15.3067 1.16667H12.6933C12.4052 1.16667 12.152 1.39183 12.1182 1.67883L11.7903 4.25017C11.7612 4.48117 11.5967 4.6725 11.3727 4.73783C10.64 4.94783 9.9435 5.23717 9.303 5.59533C9.09883 5.71083 8.84567 5.68983 8.66017 5.5475L6.6185 3.96083C6.38283 3.77767 6.055 3.794 5.8555 3.99933L4.00633 5.84967C3.79517 6.055 3.77883 6.384 3.96083 6.61967L5.5475 8.66133C5.691 8.84567 5.71083 9.09883 5.5965 9.303C5.236 9.94583 4.94783 10.6423 4.73783 11.3727C4.67367 11.5967 4.48233 11.7612 4.25133 11.7903L1.68467 12.117C1.39183 12.152 1.16667 12.4052 1.16667 12.6933V15.3067C1.16667 15.5948 1.39183 15.848 1.67883 15.8818L4.25017 16.2097C4.48117 16.2388 4.6725 16.4033 4.73667 16.6273C4.94667 17.3577 5.236 18.0542 5.59533 18.697C5.70967 18.9012 5.691 19.1543 5.54633 19.3387L3.95967 21.3803C3.7765 21.616 3.79283 21.945 3.99817 22.1433L5.84733 23.9925C6.0515 24.2037 6.37933 24.22 6.61733 24.038L8.659 22.4513C8.76517 22.372 8.89117 22.33 9.01833 22.33Z" fill="white"/>
<path d="M14 19.8333C10.7835 19.8333 8.16669 17.2165 8.16669 14C8.16669 10.7835 10.7835 8.16666 14 8.16666C17.2165 8.16666 19.8334 10.7835 19.8334 14C19.8334 17.2165 17.2165 19.8333 14 19.8333ZM14 9.33332C11.4264 9.33332 9.33335 11.4263 9.33335 14C9.33335 16.5737 11.4264 18.6667 14 18.6667C16.5737 18.6667 18.6667 16.5737 18.6667 14C18.6667 11.4263 16.5737 9.33332 14 9.33332Z" fill="white"/>
</svg>
