<svg width="23" height="23" viewBox="0 0 23 23" xmlns="http://www.w3.org/2000/svg">
<path d="M2.87505 22.9942C2.13809 22.9942 1.40209 22.7163 0.841468 22.1615C-0.272116 21.0364 -0.272116 19.2136 0.838593 18.0924L9.97247 8.96808C9.71372 8.25508 9.58338 7.49608 9.58338 6.70833C9.58338 3.01012 12.5926 0 16.2917 0C17.1868 0 18.0464 0.170583 18.8447 0.506958C18.9913 0.568292 19.0977 0.699583 19.1284 0.85675C19.159 1.01296 19.1092 1.17492 18.9971 1.28704L16.0751 4.20996L16.6195 6.38058L18.7891 6.92492L21.712 4.002C21.8242 3.88892 21.9842 3.83717 22.1433 3.87071C22.2995 3.90042 22.4308 4.00775 22.4931 4.15437C22.8295 4.95362 23 5.81229 23 6.70833C23 10.4065 19.9909 13.4167 16.2917 13.4167C15.503 13.4167 14.745 13.2854 14.0329 13.0285L4.91055 22.1595C4.34897 22.7154 3.61105 22.9942 2.87505 22.9942ZM16.2917 0.958333C13.1206 0.958333 10.5417 3.53721 10.5417 6.70833C10.5417 7.48171 10.6874 8.21771 10.9739 8.89908C11.0496 9.07925 11.0084 9.28625 10.8714 9.42425L1.51805 18.768C0.778218 19.5155 0.778218 20.7345 1.51997 21.4839C2.26651 22.2228 3.48647 22.2218 4.23493 21.4801L13.5777 12.1287C13.7157 11.9907 13.9218 11.9495 14.1029 12.0261C14.7814 12.3136 15.5183 12.4583 16.2917 12.4583C19.4628 12.4583 22.0417 9.87946 22.0417 6.70833C22.0417 6.19658 21.9765 5.69825 21.8481 5.22196L19.275 7.79508C19.1562 7.91487 18.9827 7.96279 18.8198 7.92158L16.1077 7.24117C15.9362 7.19804 15.803 7.06387 15.7598 6.89329L15.0794 4.18121C15.0382 4.01733 15.0861 3.84387 15.205 3.72504L17.7781 1.15192C17.3018 1.02254 16.8044 0.958333 16.2917 0.958333Z"/>
</svg>
