<svg width="11" height="11" viewBox="0 0 11 11" xmlns="http://www.w3.org/2000/svg">
<path d="M6.1077 5.50002L10.8742 0.733545C11.042 0.565731 11.042 0.293653 10.8742 0.125861C10.7063 -0.0419321 10.4343 -0.0419535 10.2665 0.125861L5.5 4.89233L0.733545 0.125861C0.565731 -0.0419535 0.293653 -0.0419535 0.125861 0.125861C-0.0419321 0.293675 -0.0419535 0.565752 0.125861 0.733545L4.89231 5.49999L0.125861 10.2665C-0.0419535 10.4343 -0.0419535 10.7064 0.125861 10.8742C0.209757 10.958 0.319735 11 0.429714 11C0.539692 11 0.649649 10.958 0.733567 10.8742L5.5 6.1077L10.2664 10.8742C10.3503 10.958 10.4603 11 10.5703 11C10.6803 11 10.7902 10.958 10.8742 10.8742C11.042 10.7063 11.042 10.4343 10.8742 10.2665L6.1077 5.50002Z" />
</svg>
